<svg style="max-height: 500px" class="svg-preview" xmlns="http://www.w3.org/2000/svg" version="1.1" viewBox="0 0 513.024 512" width="513.024" height="512">
<path transform="translate(312.28125,190.22265625)" fill="#ffffff" d="M0 0 C18.10304837 12.12014891 39.25523207 18.69093862 59.58105469 26.17382812 C76.70090347 32.47912235 93.75324949 38.96270564 110.80395508 45.45214844 C113.29246265 46.39913539 115.78099518 47.34605669 118.26953125 48.29296875 C119.49130569 48.75797791 120.71308014 49.22298706 121.97187805 49.7020874 C128.80711056 52.30058904 135.64933972 54.87888038 142.50230408 57.43025208 C146.41992694 58.88915653 150.33446301 60.35623567 154.24874878 61.82406616 C156.04200842 62.49375445 157.83684369 63.15924075 159.6333313 63.82022095 C162.08783181 64.72360318 164.53648962 65.6413728 166.984375 66.5625 C167.68785568 66.81678772 168.39133636 67.07107544 169.11613464 67.33306885 C175.04573498 69.59284049 180.39718246 72.85899524 183.09375 78.83984375 C187.03033514 88.84670935 184.73511852 99.15701561 180.71875 108.77734375 C175.13931478 119.56896022 167.66762674 128.46826084 155.921875 132.375 C148.90330715 133.65675973 143.8553488 132.00705045 137.50390625 129.30078125 C136.63024918 128.93963226 135.7565921 128.57848328 134.85646057 128.20639038 C132.13776264 127.07737917 129.42752056 125.9299464 126.71875 124.77734375 C125.9020282 124.43223755 125.0853064 124.08713135 124.24383545 123.73156738 C119.39205005 121.67986475 114.55239477 119.60095065 109.71749878 117.50979614 C93.90983013 110.67475512 78.05317176 103.96435257 62.15625 97.33984375 C50.57470779 92.51139225 39.00903278 87.66129709 27.53125 82.58984375 C26.54938721 82.15663818 25.56752441 81.72343262 24.5559082 81.27709961 C20.46436001 79.46423452 16.38605115 77.62972468 12.33203125 75.734375 C-6.5893781 66.96785677 -26.44573582 63.46424176 -47.28125 63.77734375 C-47.08789062 63.22046875 -46.89453125 62.66359375 -46.6953125 62.08984375 C-40.69766101 44.5125681 -39.56142581 28.46088962 -46.72265625 10.9296875 C-49.72958987 4.8479947 -53.65949289 -0.67385238 -58.52734375 -5.40625 C-60.28125 -7.22265625 -60.28125 -7.22265625 -60.28125 -9.22265625 C-39.20323125 -16.1660036 -18.15363325 -12.29692538 0 0 Z"/>
<path transform="translate(243,278)" fill="#ffffff" d="M0 0 C0.4021875 1.74410156 0.4021875 1.74410156 0.8125 3.5234375 C5.03908371 21.11997829 11.66303433 35.47820903 21.74023438 50.49829102 C27.24898036 58.73123794 32.35436603 67.15263811 37.375 75.6875 C38.99715703 78.44154695 40.61963986 81.19540191 42.2421875 83.94921875 C42.64215439 84.62849426 43.04212128 85.30776978 43.45420837 86.00762939 C47.40664843 92.71030251 51.44653014 99.35809534 55.5 106 C62.14100175 116.8892378 68.6704637 127.84121058 75.16156006 138.82040405 C80.10394026 147.17739451 85.07119381 155.50933077 90.32397461 163.67675781 C94.49451562 170.19653371 95.05391812 176.59504379 93.57421875 184.18359375 C90.00292023 195.07276778 80.58630284 203.75805428 70.68969727 208.92724609 C61.95201382 213.33870235 53.47965438 215.95617081 43.8125 212.9375 C35.27028246 209.12374948 31.34339567 199.68573769 27.125 191.875 C26.47363275 190.68339272 25.82143287 189.49224024 25.16845703 188.30151367 C23.80051534 185.8048118 22.4368587 183.30583844 21.07617188 180.80517578 C19.04056851 177.06833495 16.98424766 173.34321325 14.921875 169.62109375 C8.66214014 158.31926825 2.44292468 146.99769267 -3.6875 135.625 C-8.38944035 126.90323991 -13.21954309 118.26265777 -18.12133789 109.65185547 C-22.04914456 102.73337811 -25.85682139 95.75650073 -29.625 88.75 C-43.36169601 63.20576272 -43.36169601 63.20576272 -61.1875 40.4375 C-68.90434077 31.87882206 -76 19.84501426 -76 8 C-69.39240924 7.21612168 -62.94241472 6.8905449 -56.29296875 7.0078125 C-54.47070872 7.02533155 -52.64844273 7.04223956 -50.82617188 7.05859375 C-48.00918397 7.08942329 -45.19250802 7.12491738 -42.37573242 7.17138672 C-27.50822776 7.40281792 -13.27259697 0 0 0 Z"/>
<path transform="translate(15,101)" fill="#ffffff" d="M0 0 C3.78710265 3.02539079 6.91051375 5.88755734 9.875 9.75 C23.61539996 26.90244559 39.65157385 43.50136504 57 57 C58.0540599 57.86478392 59.10604593 58.73210007 60.15625 59.6015625 C74.11289352 71.04279989 90.73541175 82.24006061 107.97265625 87.99194336 C116.82238158 91.00192473 122.79247161 95.21456557 129.375 101.8125 C130.30675049 102.74376709 131.23850098 103.67503418 132.19848633 104.63452148 C140.18351619 113.19918689 140.18351619 113.19918689 139.98730469 119.57983398 C139.50623409 122.7612463 138.74208168 125.8709459 138 129 C138.45951374 141.25864078 143.83344805 152.28294586 151 162 C151.56589844 162.76957031 152.13179687 163.53914062 152.71484375 164.33203125 C154.12937436 166.23249473 155.55654581 168.1214621 157 170 C118.45285953 171.17734479 82.26517661 159.42873329 53 134 C52.34644531 133.46761719 51.69289062 132.93523437 51.01953125 132.38671875 C46.48870262 128.67604011 42.73738725 124.49780804 39 120 C38.38382813 119.28328125 37.76765625 118.5665625 37.1328125 117.828125 C9.37216554 84.60453949 -0.79768692 42.45467062 0 0 Z"/>
<path transform="translate(115,20)" fill="#ffffff" d="M0 0 C4.12847823 3.91637293 7.5291753 8.13887479 10.9375 12.6875 C12.09173158 14.21278192 13.24670428 15.73750324 14.40234375 17.26171875 C15.29155518 18.43613525 15.29155518 18.43613525 16.19873047 19.63427734 C19.10166943 23.44689303 22.05095133 27.22301096 25 31 C31.22413156 38.9825805 37.37961064 47.01593302 43.52001953 55.06298828 C46.54338094 59.01999082 49.58272853 62.96467076 52.62109375 66.91015625 C54.19811979 68.95847742 55.77365859 71.00794455 57.34765625 73.05859375 C62.1456476 79.30768492 66.97010864 85.53524417 71.8125 91.75 C78.10145276 99.82333191 84.32526257 107.94487634 90.53320312 116.08056641 C92.6819294 118.892365 94.84066058 121.69634155 97 124.5 C103.01998642 132.31803516 109.00957703 140.15930245 115 148 C111.52054524 148.98370108 109.54625862 148.73507882 106 148 C89.07517558 146.80408307 73.90242154 149.82685222 60.09765625 160.17578125 C55.58839417 164.10189064 51.72645984 168.2376646 48.3515625 173.17578125 C46.75344079 175.33278367 44.93034768 177.1394734 43 179 C33.54628518 169.8898324 24.43936151 160.8750852 17 150 C16.59088379 149.4028418 16.18176758 148.80568359 15.76025391 148.19042969 C-8.60366286 112.07010471 -16.09594747 70.76125319 -8 28 C-6.05564858 18.40331815 -4.12866575 8.91743795 0 0 Z"/>
<path transform="translate(240,190)" fill="#ffffff" d="M0 0 C10.26817055 8.46335559 15.91733764 19.22323079 17.38671875 32.4921875 C17.81144743 45.64413067 13.95555987 58.41697119 4.96484375 68.21875 C-5.87774037 78.4685297 -17.93343513 81.64807251 -32.484375 81.3046875 C-44.3066403 80.70815118 -53.89910228 75.29695681 -62.06640625 66.8671875 C-71.50036652 55.49753343 -73.98885317 43.42312987 -73 29 C-70.56748818 15.79702919 -63.64381438 5.9921324 -53 -2 C-36.63807394 -12.83066766 -15.72349779 -10.7161685 0 0 Z M-43 25 C-46.51544831 30.09133893 -46.69397903 35.01809622 -46 41 C-44.22290137 46.43583112 -40.77688018 49.99130609 -36 53 C-30.51079547 55.37398079 -25.71132722 55.42441165 -20.1484375 53.2578125 C-15.39672488 50.47590075 -11.73627111 46.20881333 -10 41 C-9.22066245 34.52255515 -10.10149667 29.30983094 -14 24 C-18.14902514 19.56483519 -22.58829506 18.18119829 -28.57421875 17.86328125 C-34.33317275 18.18785998 -38.94886695 21.06139843 -43 25 Z"/>
<path transform="translate(307,274)" fill="#ffffff" d="M0 0 C5.8405721 0.98459487 10.87777456 3.39914166 16.25 5.8125 C17.26835937 6.25142578 18.28671875 6.69035156 19.3359375 7.14257812 C20.30273438 7.57634766 21.26953125 8.01011719 22.265625 8.45703125 C23.15024414 8.84866455 24.03486328 9.24029785 24.94628906 9.64379883 C27 11 27 11 27.84277344 12.98095703 C28.67871124 23.71574839 18.3885913 36.38265429 11.875 44.125 C3.68339324 52.87291282 -6.55236822 59.38400202 -18 63 C-18.99 63 -19.98 63 -21 63 C-22.76449608 60.50877078 -24.33470954 58.06246948 -25.875 55.4375 C-26.72426879 54.01815628 -27.57582112 52.60017635 -28.4296875 51.18359375 C-28.84831055 50.48476074 -29.26693359 49.78592773 -29.69824219 49.06591797 C-30.98700259 47.02062717 -32.3744622 45.09661749 -33.8203125 43.16015625 C-36 40 -36 40 -36 37 C-33.65625 35.421875 -33.65625 35.421875 -30.5 33.75 C-25.59767916 31.03228313 -21.55978327 28.15970757 -17.5234375 24.28515625 C-16 23 -16 23 -14 23 C-13.73832031 22.42507813 -13.47664063 21.85015625 -13.20703125 21.2578125 C-11.92194252 18.85398957 -10.42948582 16.96847298 -8.6875 14.875 C-5.00592532 10.24607452 -2.43340903 5.37144206 0 0 Z"/>
</svg>